t120

loop 2

channel 0
v15o3l8eg#e<b>eg#ag#f#g#f#d#e<b>eg#f#ad#f#l4e<b>l8eg#e<b>eg#ag#f#g#f#d#e<b>
eg#f#ad#f#l4e<b>l8eg#e<b>eg#ag#f#g#f#d#e<b>eg#f#ad#f#l4e<b

channel 1
v15o3l8bebd#bec#d#bebag#ebed#c#d#bl2el8ebebd#bec#d#bebag#ebed#c#d#bl2el8ebe
bd#bec#d#bebag#ebed#c#d#bl2e

channel 2
v2o2l2p1p1p1eebe<b>eeebe<b>e

channel 3
v2o5l8p1p1p1
p8fp8fp8fp8fp8e-p8e-p8
fp8fp8l16e-e-p8e-

e-p8l8fp8f
p8e-p8e-
p8
l16
e-
e-p8l8e-p8cp8cp8e-p8e-p8fp8fp8e-p4

end

loop 2

channel 0
v15o3p1p2p8l4bl8bp1p2p8l4bl8b

channel 1
v15o3p1p2p8l4al8ap1p2p8l4gl8g

channel 2
o2l8eep8l4gl8ee<b>eep8l4gl8ee<b>eep8l4gl8ee<b>eep8l4gl8ee<b

channel 3
v2o4l16a-e-e-e-a-e-e-e-a-e-e-e-a-e-e-e-a-ggga-ggga-ggga-ggga-e-e-e-a-e-e-e-
a-e-e-e-a-e-e-e-a-ggga-ggga-ggga-ggg

end

channel 0
v15o3l2bp8l8bp16l16bp8l2bp8l8bp16l16bp8l2bp8l8bp16l16bp8l2bp8l8bp16l16bp8

channel 1
v15o3l2f#p8l8f#p16l16f#p8l2f#p8l8f#p16l16f#p8l2f#p8l8f#p16l16f#p8l2f#p8l8f#
p16l16f#p8

channel 2
o2l2dp8l8dp16l16dp8l2dp8l8dp16l16dp8l2dp8l8dp16l16dp8l2dp8l8dp16l16dp8

channel 3
v2o3l4ddddddl8ddp16l16dp16dl4ddddddl8ddp16l16dp16d

