;This is the forest music.

t100

channel 0
v9o2p1p1p1p2p4l4cl4cccl8cl16<b->cl4<b-aaap4l4aa>l8cl16<b->cl4<b-aaap2l16a
p16l8ab-a>l4al8al16>c<al8>c<aaap2p4l8al16>c<al8>c<a>d<ap2>d<a>d<ap4>d<a>c<aaa
p2p2p8>d<a>c<a>l16c<al8>c<aaap4gagdddp4fdfdddp4dl16fdl8faaap2p2p4p8p16l16a
l8>d<a>c<ap4>c<agap8gap8ga>c<agagddedp4ddfl16edcdl8ed<a>p2p2l8fl16edcdl8ed<a
aa>p2p2l8fl16edcdl8edaaap4gafl16ep16ep16el8fl16ep16ep16ep1

channel 1
v20o1p1p4p8p16l16b-l4b-b-p1p4p8p16l16b-l4b-b-p1p4p8p16l16b-l4b-b-p1p4p8p16
l16b-l4b-b-p1p4p8p16l16b-l4b-b-p1p4p8p16l16b-l4b-b-p1p4p8p16l16b-l4b-b-p1p4
p8p16l16b-l4b-b-p1p4p8p16l16b-l4b-b-p1p4p8p16l16b-l4b-b-p1p4p8p16l16b-l4b-b-
p1p4p8p16l16b-l4b-b-p1p4p8p16l16b-l4b-b-p1p4p8p16l16b-l4b-b-p1p4p8p16l16b-
l4b-b-

channel 2
o2l4dal2al4dal2al4dal2al4dal2al4dal2al4dal2al4dal2al4dal2al4dal2al4dal2al4d
al2al4dal2al4dal2al4dal2al4dal2al4dal2al4dal2al4dal2al4dal2al4dal2al4dal2a
l4dal2al4dal2al4dal2al4dal2al4dal2al4dal2al4dal2a

channel 3
v3o4p2p8l8cp8cp2p8cp8cp2p8l8cp8cp2p8cp8cep8ep8ecl16ecccl8ep8ep8ecl16ecccl8e
p8ep8ecl16ecccl8ep8ep8ecl16ecccl8ep8ecl16eel8cl16ecccl8ep8ecl16eel8cl16eccc
l16eel8cel16ccl8ecl16ecccl8ececl16eel8cl16ecccl8ep8ececl16ecccl8l16eep16ee
p16eceep16eep16eel8ep8ep8ecl16ecccl8ecep8l16ecececccl8ep8ef#ecl16ecccl8ef#ef
ecl16ecccl8ep8el16eel8ecl16ecccl16ecccecccceccceeel8ep8ececp16l16eeeceeecf#
cceeecgccceeecp16cccp2p8l8ep16l16ep16el8ecececp16l16eeel8cecl16eel8cecccp4
p2ep8ececp16l16eeeceeep16eeep16ep16cep16eep16ep16cep16eep16ep16cep16cep16ce
p16cep16cep16cececcp8cececp8ecp8


